<?xml version="1.0" encoding="utf-8"?>
<!-- Generator: Adobe Illustrator 16.0.0, SVG Export Plug-In . SVG Version: 6.00 Build 0)  -->
<!DOCTYPE svg PUBLIC "-//W3C//DTD SVG 1.1//EN" "http://www.w3.org/Graphics/SVG/1.1/DTD/svg11.dtd">
<svg version="1.1" id="Capa_1" xmlns="http://www.w3.org/2000/svg" xmlns:xlink="http://www.w3.org/1999/xlink" x="0px" y="0px"
	 width="2228.029px" height="286.301px" viewBox="0 0 2228.029 286.301" enable-background="new 0 0 2228.029 286.301"
	 xml:space="preserve">
<g>
	<path fill="#FFFFFF" d="M19.536,254.484V31.821h181.797v37.213H66.615v52.355h123.489v35.957H66.615v59.609h143.771v37.529H19.536z
		"/>
	<path fill="#FFFFFF" d="M403.027,254.484L291.124,98.364l2.897,156.121h-46.718V31.821h43.096l113.353,157.062l-5.796-157.062
		h47.078v222.664H403.027z"/>
	<path fill="#FFFFFF" d="M644.19,254.484l-50.338-82.631h-43.097v82.631h-47.439V31.821h104.659
		c11.589,0,45.994,0.945,68.807,27.123c14.851,17.028,15.574,36.268,15.574,43.522c0,3.47-0.363,14.51-4.708,24.916
		c-3.986,9.146-16.299,28.385-45.63,36.268l56.854,90.836H644.19V254.484z M627.894,74.398c-8.33-4.731-18.105-6.626-38.386-6.626
		h-38.753v69.388h17.021c27.887,0,45.27,0,56.858-5.364c7.241-3.469,19.194-11.669,19.194-29.646
		C643.83,96.474,643.104,83.227,627.894,74.398z"/>
	<path fill="#FFFFFF" d="M736.879,254.484V31.821h47.076v222.664H736.879z"/>
	<path fill="#FFFFFF" d="M1037.808,222.314c-11.95,13.248-39.835,37.846-91.26,37.846c-8.691,0-29.334-0.629-51.426-9.461
		c-28.971-11.986-68.084-42.262-68.084-108.18c0-11.985,0-43.839,23.541-73.169c12.313-15.454,41.647-43.21,97.778-43.21
		c48.892,0,74.603,21.135,86.192,35.326c8.33,10.724,13.397,21.76,17.744,33.429l-47.439,10.723
		c-0.363-2.836-1.813-10.09-6.52-17.661c-9.779-15.766-28.971-23.971-49.252-23.653c-14.484,0-24.627,3.784-29.695,5.992
		c-18.833,8.2-40.561,29.647-40.561,71.279c0,6.308,0.362,32.798,15.211,52.671c5.07,6.621,11.228,12.299,18.47,16.4
		c15.211,9.145,30.419,10.09,37.3,10.09c19.918,0,34.766-6.938,47.079-20.184c5.071-5.361,9.054-11.982,10.14-13.561
		c1.449-2.84,2.537-5.363,4.708-11.039l45.269,16.4C1051.57,203.707,1046.5,212.537,1037.808,222.314z"/>
	<path fill="#FFFFFF" d="M1385.79,254.484l4.709-182.926l-55.406,182.926h-43.096l-55.41-182.926l4.709,182.926h-46.715V31.821
		h69.531l49.975,165.261l49.252-165.261h69.172v222.664H1385.79z"/>
	<path fill="#FFFFFF" d="M1640.353,254.484l-14.848-43.523h-95.967l-14.85,43.523h-51.424l86.553-222.664h54.32l87.277,222.664
		H1640.353z M1577.702,71.873l-35.49,102.5h70.617L1577.702,71.873z"/>
	<path fill="#FFFFFF" d="M1865.222,254.484l-50.338-82.631h-43.094v82.631h-47.443V31.821h104.664
		c11.586,0,45.99,0.945,68.805,27.123c14.846,17.028,15.574,36.268,15.574,43.522c0,3.47-0.363,14.51-4.711,24.916
		c-3.982,9.146-16.295,28.385-45.627,36.268l56.854,90.836h-54.684V254.484z M1848.927,74.398
		c-8.33-4.731-18.109-6.626-38.389-6.626h-38.748v69.388h17.02c27.887,0,45.268,0,56.854-5.364
		c7.244-3.469,19.195-11.669,19.195-29.646C1864.859,96.474,1864.138,83.227,1848.927,74.398z"/>
	<path fill="#FFFFFF" d="M2054.24,69.351v185.133h-47.803V69.351h-69.531v-37.53h187.951v37.53H2054.24z"/>
	<path fill="#FFFFFF" d="M2161.417,254.484V31.821h47.078v222.664H2161.417z"/>
</g>
</svg>
