<?xml version="1.0" encoding="utf-8"?>
<!-- Generator: Adobe Illustrator 16.0.0, SVG Export Plug-In . SVG Version: 6.00 Build 0)  -->
<!DOCTYPE svg PUBLIC "-//W3C//DTD SVG 1.1//EN" "http://www.w3.org/Graphics/SVG/1.1/DTD/svg11.dtd">
<svg version="1.1" id="Capa_1" xmlns="http://www.w3.org/2000/svg" xmlns:xlink="http://www.w3.org/1999/xlink" x="0px" y="0px"
	 width="2228.029px" height="286.301px" viewBox="0 0 2228.029 286.301" enable-background="new 0 0 2228.029 286.301"
	 xml:space="preserve">
<g opacity="0.1">
	<path d="M19.536,256.484V33.821h181.797v37.213H66.615v52.355h123.489v35.957H66.615v59.609h143.771v37.528H19.536z"/>
	<path d="M403.027,256.484l-111.903-156.12l2.897,156.121h-46.718V33.821h43.096l113.353,157.063l-5.796-157.063h47.078v222.664
		L403.027,256.484L403.027,256.484z"/>
	<path d="M644.19,256.484l-50.338-82.631h-43.097v82.631h-47.439V33.821h104.659c11.589,0,45.994,0.945,68.807,27.123
		c14.852,17.028,15.574,36.269,15.574,43.522c0,3.47-0.363,14.51-4.708,24.916c-3.986,9.146-16.299,28.385-45.63,36.268
		l56.854,90.836H644.19V256.484z M627.894,76.398c-8.33-4.73-18.105-6.626-38.386-6.626h-38.753v69.389h17.021
		c27.888,0,45.271,0,56.858-5.364c7.24-3.469,19.193-11.669,19.193-29.646C643.83,98.474,643.104,85.227,627.894,76.398z"/>
	<path d="M736.879,256.484V33.821h47.076v222.664L736.879,256.484L736.879,256.484z"/>
	<path d="M1037.808,224.314c-11.95,13.248-39.835,37.847-91.26,37.847c-8.691,0-29.334-0.63-51.426-9.462
		c-28.972-11.985-68.084-42.262-68.084-108.18c0-11.984,0-43.839,23.541-73.169c12.313-15.454,41.646-43.21,97.777-43.21
		c48.893,0,74.604,21.135,86.191,35.326c8.33,10.724,13.397,21.76,17.744,33.429l-47.438,10.724
		c-0.363-2.837-1.813-10.091-6.521-17.661c-9.778-15.767-28.971-23.972-49.252-23.653c-14.483,0-24.627,3.784-29.694,5.992
		c-18.833,8.2-40.562,29.646-40.562,71.278c0,6.309,0.362,32.799,15.211,52.672c5.07,6.621,11.229,12.299,18.471,16.399
		c15.211,9.146,30.418,10.09,37.3,10.09c19.918,0,34.766-6.938,47.079-20.184c5.07-5.361,9.054-11.982,10.14-13.562
		c1.449-2.84,2.537-5.362,4.708-11.038l45.27,16.399C1051.57,205.707,1046.5,214.537,1037.808,224.314z"/>
	<path d="M1385.791,256.484l4.709-182.926l-55.406,182.926h-43.096l-55.41-182.926l4.709,182.926h-46.715V33.821h69.53
		l49.976,165.262l49.252-165.262h69.172v222.664L1385.791,256.484L1385.791,256.484z"/>
	<path d="M1640.353,256.484l-14.848-43.522h-95.967l-14.851,43.522h-51.424l86.553-222.664h54.32l87.276,222.664H1640.353z
		 M1577.703,73.873l-35.49,102.5h70.617L1577.703,73.873z"/>
	<path d="M1865.222,256.484l-50.338-82.631h-43.094v82.631h-47.443V33.821h104.664c11.586,0,45.99,0.945,68.805,27.123
		c14.846,17.028,15.574,36.269,15.574,43.522c0,3.47-0.363,14.51-4.711,24.916c-3.982,9.146-16.295,28.385-45.627,36.268
		l56.854,90.836h-54.684V256.484z M1848.927,76.398c-8.33-4.73-18.109-6.626-38.389-6.626h-38.748v69.389h17.02
		c27.887,0,45.268,0,56.854-5.364c7.244-3.469,19.195-11.669,19.195-29.646C1864.859,98.474,1864.138,85.227,1848.927,76.398z"/>
	<path d="M2054.24,71.351v185.133h-47.803V71.351h-69.531v-37.53h187.951v37.53H2054.24z"/>
	<path d="M2161.418,256.484V33.821h47.077v222.664L2161.418,256.484L2161.418,256.484z"/>
</g>
<g>
	<path fill="#FFFFFF" d="M17.536,254.484V31.821h181.797v37.213H64.615v52.355h123.489v35.957H64.615v59.609h143.771v37.528H17.536z
		"/>
	<path fill="#FFFFFF" d="M401.027,254.484L289.124,98.364l2.897,156.121h-46.718V31.821h43.096l113.353,157.063l-5.796-157.063
		h47.078v222.664L401.027,254.484L401.027,254.484z"/>
	<path fill="#FFFFFF" d="M642.19,254.484l-50.338-82.631h-43.097v82.631h-47.439V31.821h104.659
		c11.589,0,45.994,0.945,68.807,27.123c14.852,17.028,15.574,36.269,15.574,43.522c0,3.47-0.363,14.51-4.708,24.916
		c-3.986,9.146-16.299,28.385-45.63,36.268l56.854,90.836H642.19V254.484z M625.894,74.398c-8.33-4.73-18.105-6.626-38.386-6.626
		h-38.753v69.389h17.021c27.888,0,45.271,0,56.858-5.364c7.24-3.469,19.193-11.669,19.193-29.646
		C641.83,96.474,641.104,83.227,625.894,74.398z"/>
	<path fill="#FFFFFF" d="M734.879,254.484V31.821h47.076v222.664L734.879,254.484L734.879,254.484z"/>
	<path fill="#FFFFFF" d="M1035.808,222.314c-11.95,13.248-39.835,37.847-91.26,37.847c-8.691,0-29.334-0.63-51.426-9.462
		c-28.972-11.985-68.084-42.262-68.084-108.18c0-11.984,0-43.839,23.541-73.169c12.313-15.454,41.646-43.21,97.777-43.21
		c48.893,0,74.604,21.135,86.191,35.326c8.33,10.724,13.397,21.76,17.744,33.429l-47.438,10.724
		c-0.363-2.837-1.813-10.091-6.521-17.661c-9.778-15.767-28.971-23.972-49.252-23.653c-14.483,0-24.627,3.784-29.694,5.992
		c-18.833,8.2-40.562,29.646-40.562,71.278c0,6.309,0.362,32.799,15.211,52.672c5.07,6.621,11.229,12.299,18.471,16.399
		c15.211,9.146,30.418,10.09,37.3,10.09c19.918,0,34.766-6.938,47.079-20.184c5.07-5.361,9.054-11.982,10.14-13.562
		c1.449-2.84,2.537-5.362,4.708-11.038l45.27,16.399C1049.57,203.707,1044.5,212.537,1035.808,222.314z"/>
	<path fill="#FFFFFF" d="M1383.791,254.484l4.709-182.926l-55.406,182.926h-43.096l-55.41-182.926l4.709,182.926h-46.715V31.821
		h69.53l49.976,165.262l49.252-165.262h69.172v222.664L1383.791,254.484L1383.791,254.484z"/>
	<path fill="#FFFFFF" d="M1638.353,254.484l-14.848-43.522h-95.967l-14.851,43.522h-51.424l86.553-222.664h54.32l87.276,222.664
		H1638.353z M1575.703,71.873l-35.49,102.5h70.617L1575.703,71.873z"/>
	<path fill="#FFFFFF" d="M1863.222,254.484l-50.338-82.631h-43.094v82.631h-47.443V31.821h104.664
		c11.586,0,45.99,0.945,68.805,27.123c14.846,17.028,15.574,36.269,15.574,43.522c0,3.47-0.363,14.51-4.711,24.916
		c-3.982,9.146-16.295,28.385-45.627,36.268l56.854,90.836h-54.684V254.484z M1846.927,74.398c-8.33-4.73-18.109-6.626-38.389-6.626
		h-38.748v69.389h17.02c27.887,0,45.268,0,56.854-5.364c7.244-3.469,19.195-11.669,19.195-29.646
		C1862.859,96.474,1862.138,83.227,1846.927,74.398z"/>
	<path fill="#FFFFFF" d="M2052.24,69.351v185.133h-47.803V69.351h-69.531v-37.53h187.951v37.53H2052.24z"/>
	<path fill="#FFFFFF" d="M2159.418,254.484V31.821h47.077v222.664L2159.418,254.484L2159.418,254.484z"/>
</g>
</svg>
