<?xml version="1.0" encoding="utf-8"?>
<!-- Generator: Adobe Illustrator 19.0.0, SVG Export Plug-In . SVG Version: 6.00 Build 0)  -->
<svg version="1.1" id="Capa_1" xmlns="http://www.w3.org/2000/svg" xmlns:xlink="http://www.w3.org/1999/xlink" x="0px" y="0px"
	 viewBox="808 253.7 2228 286.3" style="enable-background:new 808 253.7 2228 286.3;" xml:space="preserve">
<g>
	<path d="M827.5,508.2V285.5h181.8v37.2H874.6v52.4h123.5v36H874.6v59.6h143.8v37.5H827.5L827.5,508.2z"/>
	<path d="M1211,508.2l-111.9-156.1l2.9,156.1h-46.7V285.5h43.1l113.4,157.1l-5.8-157.1h47.1v222.7L1211,508.2L1211,508.2z"/>
	<path d="M1452.2,508.2l-50.3-82.6h-43.1v82.6h-47.4V285.5H1416c11.6,0,46,0.9,68.8,27.1c14.9,17,15.6,36.3,15.6,43.5
		c0,3.5-0.4,14.5-4.7,24.9c-4,9.1-16.3,28.4-45.6,36.3l56.9,90.8L1452.2,508.2L1452.2,508.2z M1435.9,328.1
		c-8.3-4.7-18.1-6.6-38.4-6.6h-38.8v69.4h17c27.9,0,45.3,0,56.9-5.4c7.2-3.5,19.2-11.7,19.2-29.6
		C1451.8,350.2,1451.1,336.9,1435.9,328.1z"/>
	<path d="M1544.9,508.2V285.5h47.1v222.7L1544.9,508.2L1544.9,508.2z"/>
	<path d="M1845.8,476c-11.9,13.2-39.8,37.8-91.3,37.8c-8.7,0-29.3-0.6-51.4-9.5c-29-12-68.1-42.3-68.1-108.2c0-12,0-43.8,23.5-73.2
		c12.3-15.5,41.6-43.2,97.8-43.2c48.9,0,74.6,21.1,86.2,35.3c8.3,10.7,13.4,21.8,17.7,33.4l-47.4,10.7c-0.4-2.8-1.8-10.1-6.5-17.7
		c-9.8-15.8-29-24-49.3-23.7c-14.5,0-24.6,3.8-29.7,6c-18.8,8.2-40.6,29.6-40.6,71.3c0,6.3,0.4,32.8,15.2,52.7
		c5.1,6.6,11.2,12.3,18.5,16.4c15.2,9.1,30.4,10.1,37.3,10.1c19.9,0,34.8-6.9,47.1-20.2c5.1-5.4,9.1-12,10.1-13.6
		c1.4-2.8,2.5-5.4,4.7-11l45.3,16.4C1859.6,457.4,1854.5,466.2,1845.8,476z"/>
	<path d="M2193.8,508.2l4.7-182.9l-55.4,182.9H2100l-55.4-182.9l4.7,182.9h-46.7V285.5h69.5l50,165.3l49.3-165.3h69.2v222.7
		L2193.8,508.2L2193.8,508.2z"/>
	<path d="M2448.4,508.2l-14.8-43.5h-96l-14.9,43.5h-51.4l86.6-222.7h54.3l87.3,222.7H2448.4z M2385.7,325.6l-35.5,102.5h70.6
		L2385.7,325.6z"/>
	<path d="M2673.2,508.2l-50.3-82.6h-43.1v82.6h-47.4V285.5H2637c11.6,0,46,0.9,68.8,27.1c14.8,17,15.6,36.3,15.6,43.5
		c0,3.5-0.4,14.5-4.7,24.9c-4,9.1-16.3,28.4-45.6,36.3l56.9,90.8L2673.2,508.2L2673.2,508.2z M2656.9,328.1
		c-8.3-4.7-18.1-6.6-38.4-6.6h-38.7v69.4h17c27.9,0,45.3,0,56.9-5.4c7.2-3.5,19.2-11.7,19.2-29.6
		C2672.9,350.2,2672.1,336.9,2656.9,328.1z"/>
	<path d="M2862.2,323v185.1h-47.8V323h-69.5v-37.5h188V323H2862.2z"/>
	<path d="M2969.4,508.2V285.5h47.1v222.7L2969.4,508.2L2969.4,508.2z"/>
</g>
</svg>
