<?xml version="1.0" encoding="utf-8"?>
<!-- Generator: Adobe Illustrator 17.0.0, SVG Export Plug-In . SVG Version: 6.00 Build 0)  -->
<!DOCTYPE svg PUBLIC "-//W3C//DTD SVG 1.1//EN" "http://www.w3.org/Graphics/SVG/1.1/DTD/svg11.dtd">
<svg version="1.1" id="Capa_1" xmlns="http://www.w3.org/2000/svg" xmlns:xlink="http://www.w3.org/1999/xlink" x="0px" y="0px"
	 width="2228.03px" height="286.3px" viewBox="0 0 2228.03 286.3" enable-background="new 0 0 2228.03 286.3" xml:space="preserve">
<g>
	<path fill="#FFFFFF" d="M5.743,285.274V62.61h181.796v37.213H52.822v52.355h123.489v35.956H52.822v59.61h143.771v37.53H5.743z"/>
	<path fill="#FFFFFF" d="M389.234,285.274L277.33,129.153l2.898,156.121H233.51V62.61h43.096l113.352,157.062L384.162,62.61h47.079
		v222.664H389.234z"/>
	<path fill="#FFFFFF" d="M630.397,285.274l-50.338-82.631h-43.096v82.631h-47.44V62.61h104.659c11.589,0,45.994,0.945,68.807,27.123
		c14.85,17.028,15.574,36.268,15.574,43.523c0,3.469-0.363,14.509-4.708,24.916c-3.986,9.145-16.299,28.385-45.63,36.268
		l56.855,90.835H630.397z M614.101,105.187c-8.33-4.731-18.106-6.626-38.386-6.626h-38.752v69.388h17.021
		c27.887,0,45.269,0,56.858-5.364c7.242-3.469,19.194-11.669,19.194-29.647C630.036,127.263,629.311,114.016,614.101,105.187z"/>
	<path fill="#FFFFFF" d="M723.086,285.274V62.61h47.076v222.664H723.086z"/>
	<path fill="#FFFFFF" d="M1024.015,253.104c-11.95,13.247-39.835,37.846-91.26,37.846c-8.691,0-29.334-0.629-51.426-9.462
		c-28.97-11.985-68.083-42.261-68.083-108.18c0-11.985,0-43.839,23.541-73.169c12.313-15.454,41.647-43.21,97.778-43.21
		c48.891,0,74.603,21.135,86.192,35.327c8.33,10.723,13.398,21.759,17.745,33.428l-47.44,10.723
		c-0.363-2.836-1.812-10.09-6.52-17.661c-9.779-15.766-28.97-23.971-49.252-23.654c-14.484,0-24.626,3.785-29.695,5.993
		c-18.833,8.2-40.561,29.647-40.561,71.279c0,6.309,0.363,32.799,15.211,52.672c5.071,6.621,11.228,12.298,18.47,16.4
		c15.211,9.145,30.419,10.09,37.3,10.09c19.918,0,34.766-6.938,47.079-20.185c5.071-5.36,9.054-11.981,10.14-13.559
		c1.449-2.84,2.537-5.364,4.708-11.04l45.269,16.4C1037.777,234.497,1032.706,243.326,1024.015,253.104z"/>
	<path fill="#FFFFFF" d="M1371.998,285.274l4.708-182.927l-55.406,182.927h-43.096l-55.409-182.927l4.708,182.927h-46.715V62.61
		h69.532l49.974,165.262l49.252-165.262h69.171v222.664H1371.998z"/>
	<path fill="#FFFFFF" d="M1626.56,285.274l-14.847-43.523h-95.968l-14.85,43.523h-51.423l86.552-222.664h54.321l87.277,222.664
		H1626.56z M1563.909,102.663l-35.49,102.499h70.617L1563.909,102.663z"/>
	<path fill="#FFFFFF" d="M1851.429,285.274l-50.338-82.631h-43.093v82.631h-47.445V62.61h104.664
		c11.586,0,45.991,0.945,68.805,27.123c14.847,17.028,15.574,36.268,15.574,43.523c0,3.469-0.363,14.509-4.71,24.916
		c-3.983,9.145-16.296,28.385-45.628,36.268l56.855,90.835H1851.429z M1835.133,105.187c-8.33-4.731-18.109-6.626-38.388-6.626
		h-38.747v69.388h17.018c27.887,0,45.269,0,56.855-5.364c7.244-3.469,19.194-11.669,19.194-29.647
		C1851.066,127.263,1850.344,114.016,1835.133,105.187z"/>
	<path fill="#FFFFFF" d="M2040.447,100.14v185.134h-47.803V100.14h-69.532V62.61h187.952v37.53H2040.447z"/>
	<path fill="#FFFFFF" d="M2147.625,285.274V62.61h47.077v222.664H2147.625z M2183.474,40.846h-32.229L2170.803,3h51.787
		L2183.474,40.846z"/>
</g>
</svg>
